# xmcd CD database file
#
# Track frame offsets:
#	200
#	13942
#	30375
#	44102
#	57860
#	67605
#	86025
#	97285
#	113145
#	134172
#	145335
#	159262
#
# Disc length: 2268 seconds
#
# Revision: 0
# Processed by: cddbd v1.5.1PL0 Copyright (c) Steve Scherf et al.
# Submitted via: cdripper 1.0.10
#
DISCID=a908da0c
DTITLE=Roosevelt Sykes - Gold Mine: Live in Europe
DYEAR=1992
DGENRE=Blues
TTITLE0=Big Ben
TTITLE1=Boot That Thing
TTITLE2=Springfield Blues
TTITLE3=Henry Ford Blues
TTITLE4=I'm a Dangerous Man
TTITLE5=True Thing
TTITLE6=You Understand
TTITLE7=Whole Lot of Children
TTITLE8=The Last Laugh
TTITLE9=Gold Mine
TTITLE10=44 Blues
TTITLE11=Sugar Cup
EXTD=YEAR: 1992
EXTT0=
EXTT1=
EXTT2=
EXTT3=
EXTT4=
EXTT5=
EXTT6=
EXTT7=
EXTT8=
EXTT9=
EXTT10=
EXTT11=
PLAYORDER=
